<svg xmlns="http://www.w3.org/2000/svg" xmlns:xlink="http://www.w3.org/1999/xlink" width="1920" zoomAndPan="magnify" viewBox="0 0 1440 809.999993" height="1080" preserveAspectRatio="xMidYMid meet" version="1.0"><defs><g/></defs><g fill="#000000" fill-opacity="1"><g transform="translate(31.135941, 447.655929)"><g><path d="M 163.28125 -55.015625 C 163.28125 -50.566406 162.109375 -46.242188 159.765625 -42.046875 C 157.429688 -38.078125 151.941406 -33.40625 143.296875 -28.03125 C 134.660156 -22.65625 125.085938 -17.570312 114.578125 -12.78125 C 104.066406 -8 93.90625 -3.910156 84.09375 -0.515625 C 74.28125 2.867188 67.035156 4.5625 62.359375 4.5625 C 59.097656 4.5625 55.242188 3.800781 50.796875 2.28125 C 46.359375 0.757812 41.921875 -1.164062 37.484375 -3.5 C 33.046875 -5.832031 29.015625 -8.515625 25.390625 -11.546875 C 21.773438 -14.585938 19.148438 -17.515625 17.515625 -20.328125 C 16.578125 -21.960938 15.703125 -25.226562 14.890625 -30.125 C 14.078125 -35.03125 13.375 -40.753906 12.78125 -47.296875 C 12.195312 -53.835938 11.671875 -60.785156 11.203125 -68.140625 C 10.742188 -75.503906 10.335938 -82.515625 9.984375 -89.171875 C 9.628906 -95.828125 9.394531 -101.722656 9.28125 -106.859375 C 9.164062 -112.003906 9.109375 -115.742188 9.109375 -118.078125 C 9.109375 -126.722656 9.398438 -136.648438 9.984375 -147.859375 C 10.566406 -159.066406 11.675781 -170.332031 13.3125 -181.65625 C 14.945312 -192.988281 17.34375 -203.851562 20.5 -214.25 C 23.65625 -224.644531 27.914062 -233.460938 33.28125 -240.703125 C 34.914062 -242.804688 38.1875 -245.023438 43.09375 -247.359375 C 48 -249.691406 53.78125 -251.910156 60.4375 -254.015625 C 67.09375 -256.117188 74.273438 -258.101562 81.984375 -259.96875 C 89.691406 -261.84375 97.109375 -263.421875 104.234375 -264.703125 C 111.359375 -265.992188 117.835938 -267.046875 123.671875 -267.859375 C 129.515625 -268.679688 133.957031 -269.09375 137 -269.09375 C 140.5 -269.09375 143.828125 -268.332031 146.984375 -266.8125 C 150.140625 -265.289062 152.828125 -263.242188 155.046875 -260.671875 C 157.265625 -258.109375 159.015625 -255.25 160.296875 -252.09375 C 161.578125 -248.9375 162.21875 -245.609375 162.21875 -242.109375 C 162.21875 -239.066406 161.804688 -236.492188 160.984375 -234.390625 C 160.171875 -232.296875 158.945312 -229.960938 157.3125 -227.390625 C 154.976562 -224.359375 150.070312 -220.738281 142.59375 -216.53125 C 135.125 -212.320312 127.007812 -208.171875 118.25 -204.078125 C 109.488281 -199.992188 101.078125 -196.316406 93.015625 -193.046875 C 84.960938 -189.785156 79.300781 -187.453125 76.03125 -186.046875 C 75.09375 -180.671875 74.097656 -175.238281 73.046875 -169.75 C 71.992188 -164.257812 71.238281 -158.710938 70.78125 -153.109375 C 78.019531 -156.847656 86.191406 -160.351562 95.296875 -163.625 C 104.410156 -166.894531 113.054688 -168.53125 121.234375 -168.53125 C 137.816406 -168.53125 146.109375 -160.351562 146.109375 -144 C 146.109375 -140.03125 145.347656 -136.523438 143.828125 -133.484375 C 142.304688 -130.453125 140.316406 -127.765625 137.859375 -125.421875 C 135.410156 -123.085938 132.609375 -121.046875 129.453125 -119.296875 C 126.304688 -117.546875 123.210938 -115.851562 120.171875 -114.21875 C 112.703125 -110.25 104.878906 -106.800781 96.703125 -103.875 C 88.523438 -100.957031 80.347656 -98.097656 72.171875 -95.296875 C 71.703125 -93.429688 71.234375 -91.390625 70.765625 -89.171875 C 70.304688 -86.953125 70.078125 -84.789062 70.078125 -82.6875 C 70.078125 -79.414062 70.304688 -76.144531 70.765625 -72.875 C 71.234375 -69.601562 71.703125 -66.332031 72.171875 -63.0625 C 74.972656 -64 79.46875 -65.519531 85.65625 -67.625 C 91.851562 -69.726562 98.335938 -71.828125 105.109375 -73.921875 C 111.878906 -76.023438 118.414062 -77.835938 124.71875 -79.359375 C 131.03125 -80.878906 135.707031 -81.640625 138.75 -81.640625 C 142.25 -81.640625 145.515625 -80.878906 148.546875 -79.359375 C 151.585938 -77.835938 154.160156 -75.847656 156.265625 -73.390625 C 158.367188 -70.941406 160.0625 -68.082031 161.34375 -64.8125 C 162.632812 -61.539062 163.28125 -58.273438 163.28125 -55.015625 Z M 163.28125 -55.015625 "/></g></g><g transform="translate(199.662077, 447.655929)"><g><path d="M 153.8125 -89.34375 C 153.8125 -87.238281 152.117188 -85.546875 148.734375 -84.265625 C 145.347656 -82.984375 140.96875 -81.875 135.59375 -80.9375 C 130.21875 -80 124.316406 -79.238281 117.890625 -78.65625 C 111.472656 -78.070312 105.34375 -77.660156 99.5 -77.421875 C 93.664062 -77.191406 88.410156 -77.019531 83.734375 -76.90625 C 79.066406 -76.789062 75.796875 -76.734375 73.921875 -76.734375 C 71.585938 -76.734375 66.800781 -76.789062 59.5625 -76.90625 C 52.320312 -77.019531 44.789062 -77.425781 36.96875 -78.125 C 29.144531 -78.832031 22.191406 -80.0625 16.109375 -81.8125 C 10.035156 -83.5625 7 -86.070312 7 -89.34375 C 7 -93.3125 10.328125 -96.460938 16.984375 -98.796875 C 23.648438 -101.140625 31.359375 -102.835938 40.109375 -103.890625 C 48.867188 -104.941406 57.507812 -105.582031 66.03125 -105.8125 C 74.5625 -106.039062 80.816406 -106.15625 84.796875 -106.15625 C 87.128906 -106.15625 90.453125 -106.039062 94.765625 -105.8125 C 99.085938 -105.582031 103.757812 -105.171875 108.78125 -104.578125 C 113.8125 -103.992188 119.007812 -103.234375 124.375 -102.296875 C 129.75 -101.367188 134.597656 -100.320312 138.921875 -99.15625 C 143.242188 -97.988281 146.804688 -96.585938 149.609375 -94.953125 C 152.410156 -93.316406 153.8125 -91.445312 153.8125 -89.34375 Z M 153.8125 -89.34375 "/></g></g><g transform="translate(360.830523, 447.655929)"><g><path d="M 250.171875 -38.1875 C 249.460938 -32.113281 248.46875 -26.15625 247.1875 -20.3125 C 245.90625 -14.476562 244.328125 -9.28125 242.453125 -4.71875 C 240.585938 -0.164062 238.191406 3.445312 235.265625 6.125 C 232.347656 8.8125 229.023438 10.15625 225.296875 10.15625 C 221.554688 10.15625 218.164062 7.296875 215.125 1.578125 C 212.09375 -4.140625 209.234375 -11.726562 206.546875 -21.1875 C 203.859375 -30.65625 201.40625 -41.34375 199.1875 -53.25 C 196.96875 -65.164062 194.984375 -77.253906 193.234375 -89.515625 C 191.484375 -101.785156 190.019531 -113.757812 188.84375 -125.4375 C 187.675781 -137.113281 186.742188 -147.273438 186.046875 -155.921875 C 184.648438 -147.035156 183.015625 -137.101562 181.140625 -126.125 C 179.273438 -115.15625 177.054688 -104.003906 174.484375 -92.671875 C 171.910156 -81.347656 169.101562 -70.253906 166.0625 -59.390625 C 163.03125 -48.523438 159.765625 -38.828125 156.265625 -30.296875 C 152.765625 -21.773438 149.023438 -14.945312 145.046875 -9.8125 C 141.078125 -4.675781 136.875 -2.109375 132.4375 -2.109375 C 128.46875 -2.109375 124.5 -4.789062 120.53125 -10.15625 C 116.5625 -15.53125 112.707031 -22.597656 108.96875 -31.359375 C 105.226562 -40.117188 101.722656 -49.867188 98.453125 -60.609375 C 95.179688 -71.359375 92.144531 -82.160156 89.34375 -93.015625 C 86.539062 -103.878906 84.085938 -114.15625 81.984375 -123.84375 C 79.878906 -133.539062 78.242188 -141.660156 77.078125 -148.203125 C 77.078125 -143.296875 77.019531 -137.863281 76.90625 -131.90625 C 76.789062 -125.957031 76.734375 -121.695312 76.734375 -119.125 C 76.734375 -117.957031 76.671875 -114.101562 76.546875 -107.5625 C 76.429688 -101.019531 76.023438 -93.191406 75.328125 -84.078125 C 74.628906 -74.972656 73.578125 -65.222656 72.171875 -54.828125 C 70.773438 -44.429688 68.734375 -34.796875 66.046875 -25.921875 C 63.359375 -17.046875 60.03125 -9.570312 56.0625 -3.5 C 52.09375 2.570312 47.1875 5.84375 41.34375 6.3125 C 36.675781 4.207031 32.765625 0.644531 29.609375 -4.375 C 26.453125 -9.394531 23.820312 -15.289062 21.71875 -22.0625 C 19.613281 -28.84375 17.976562 -36.085938 16.8125 -43.796875 C 15.644531 -51.503906 14.710938 -59.035156 14.015625 -66.390625 C 13.316406 -73.753906 12.90625 -80.585938 12.78125 -86.890625 C 12.664062 -93.203125 12.609375 -98.34375 12.609375 -102.3125 C 12.609375 -109.3125 13.015625 -118.125 13.828125 -128.75 C 14.648438 -139.382812 15.992188 -150.539062 17.859375 -162.21875 C 19.734375 -173.894531 22.1875 -185.570312 25.21875 -197.25 C 28.257812 -208.9375 31.941406 -219.390625 36.265625 -228.609375 C 40.585938 -237.835938 45.609375 -245.367188 51.328125 -251.203125 C 57.046875 -257.046875 63.644531 -259.96875 71.125 -259.96875 C 74.625 -259.96875 78.359375 -257.984375 82.328125 -254.015625 C 86.304688 -250.046875 90.28125 -244.847656 94.25 -238.421875 C 98.21875 -232.003906 102.070312 -224.820312 105.8125 -216.875 C 109.550781 -208.9375 113.113281 -200.9375 116.5 -192.875 C 119.882812 -184.820312 122.859375 -177.113281 125.421875 -169.75 C 127.992188 -162.394531 130.097656 -156.148438 131.734375 -151.015625 C 133.609375 -156.617188 135.945312 -163.15625 138.75 -170.625 C 141.550781 -178.101562 144.644531 -185.867188 148.03125 -193.921875 C 151.414062 -201.984375 155.148438 -209.925781 159.234375 -217.75 C 163.328125 -225.582031 167.59375 -232.59375 172.03125 -238.78125 C 176.46875 -244.96875 180.960938 -249.988281 185.515625 -253.84375 C 190.078125 -257.695312 194.691406 -259.625 199.359375 -259.625 C 207.535156 -259.625 214.539062 -256.585938 220.375 -250.515625 C 226.21875 -244.441406 231.125 -236.554688 235.09375 -226.859375 C 239.070312 -217.171875 242.226562 -206.3125 244.5625 -194.28125 C 246.894531 -182.25 248.703125 -170.332031 249.984375 -158.53125 C 251.273438 -146.738281 252.09375 -135.703125 252.4375 -125.421875 C 252.789062 -115.148438 252.96875 -106.863281 252.96875 -100.5625 C 252.96875 -97.988281 252.96875 -94.484375 252.96875 -90.046875 C 252.96875 -85.609375 252.910156 -80.585938 252.796875 -74.984375 C 252.679688 -69.378906 252.390625 -63.421875 251.921875 -57.109375 C 251.453125 -50.804688 250.867188 -44.5 250.171875 -38.1875 Z M 250.171875 -38.1875 "/></g></g><g transform="translate(628.159925, 447.655929)"><g><path d="M 159.421875 -49.40625 C 159.421875 -45.195312 159.242188 -39.707031 158.890625 -32.9375 C 158.546875 -26.164062 157.554688 -19.566406 155.921875 -13.140625 C 154.285156 -6.710938 151.710938 -1.164062 148.203125 3.5 C 144.703125 8.175781 139.796875 10.515625 133.484375 10.515625 C 124.847656 10.515625 118.191406 7.707031 113.515625 2.09375 C 108.847656 -3.507812 106.628906 -10.515625 106.859375 -18.921875 C 99.390625 -12.378906 90.921875 -7.238281 81.453125 -3.5 C 71.992188 0.238281 62.363281 2.109375 52.5625 2.109375 C 45.78125 2.109375 39.351562 0.472656 33.28125 -2.796875 C 27.207031 -6.066406 21.832031 -10.269531 17.15625 -15.40625 C 12.488281 -20.550781 8.753906 -26.332031 5.953125 -32.75 C 3.148438 -39.175781 1.75 -45.546875 1.75 -51.859375 C 1.75 -63.066406 5.191406 -72.875 12.078125 -81.28125 C 18.972656 -89.695312 27.441406 -96.878906 37.484375 -102.828125 C 47.535156 -108.785156 58.222656 -113.515625 69.546875 -117.015625 C 80.878906 -120.523438 90.984375 -122.863281 99.859375 -124.03125 C 99.859375 -125.195312 99.914062 -126.25 100.03125 -127.1875 C 100.144531 -128.125 100.203125 -129.175781 100.203125 -130.34375 C 100.203125 -137.582031 98.21875 -143.421875 94.25 -147.859375 C 90.28125 -152.296875 84.675781 -154.515625 77.4375 -154.515625 C 71.59375 -154.515625 66.566406 -153.519531 62.359375 -151.53125 C 58.160156 -149.550781 54.191406 -147.332031 50.453125 -144.875 C 46.710938 -142.425781 42.972656 -140.207031 39.234375 -138.21875 C 35.503906 -136.238281 31.300781 -135.25 26.625 -135.25 C 21.488281 -135.25 17.109375 -136.878906 13.484375 -140.140625 C 9.867188 -143.410156 8.0625 -147.617188 8.0625 -152.765625 C 8.0625 -160.472656 10.335938 -167.476562 14.890625 -173.78125 C 19.441406 -180.09375 25.160156 -185.40625 32.046875 -189.71875 C 38.941406 -194.039062 46.421875 -197.425781 54.484375 -199.875 C 62.546875 -202.332031 69.960938 -203.5625 76.734375 -203.5625 C 83.035156 -203.5625 89.335938 -202.800781 95.640625 -201.28125 C 101.953125 -199.769531 107.910156 -197.4375 113.515625 -194.28125 C 119.117188 -191.125 124.195312 -187.269531 128.75 -182.71875 C 133.3125 -178.164062 136.992188 -172.851562 139.796875 -166.78125 C 144.003906 -158.132812 147.390625 -148.960938 149.953125 -139.265625 C 152.523438 -129.578125 154.507812 -119.648438 155.90625 -109.484375 C 157.3125 -99.328125 158.25 -89.164062 158.71875 -79 C 159.1875 -68.84375 159.421875 -58.976562 159.421875 -49.40625 Z M 103.359375 -60.609375 L 102.3125 -84.4375 C 101.84375 -84.4375 101.375 -84.492188 100.90625 -84.609375 C 100.4375 -84.734375 99.96875 -84.796875 99.5 -84.796875 C 96.46875 -84.796875 92.671875 -84.035156 88.109375 -82.515625 C 83.554688 -80.992188 79.175781 -78.890625 74.96875 -76.203125 C 70.769531 -73.515625 67.207031 -70.535156 64.28125 -67.265625 C 61.363281 -63.992188 59.90625 -60.609375 59.90625 -57.109375 C 59.90625 -53.835938 61.070312 -51.617188 63.40625 -50.453125 C 65.75 -49.285156 68.4375 -48.703125 71.46875 -48.703125 C 76.613281 -48.703125 82.101562 -50.046875 87.9375 -52.734375 C 93.78125 -55.421875 98.921875 -58.046875 103.359375 -60.609375 Z M 103.359375 -60.609375 "/></g></g><g transform="translate(798.087526, 447.655929)"><g><path d="M 161.515625 -230.546875 C 161.515625 -213.492188 160.875 -196.554688 159.59375 -179.734375 C 158.3125 -162.921875 157.671875 -145.988281 157.671875 -128.9375 C 157.671875 -115.15625 158.078125 -101.488281 158.890625 -87.9375 C 159.710938 -74.394531 160.125 -60.734375 160.125 -46.953125 C 160.125 -43.210938 160.003906 -38.710938 159.765625 -33.453125 C 159.535156 -28.203125 158.773438 -23.125 157.484375 -18.21875 C 156.203125 -13.3125 154.101562 -9.101562 151.1875 -5.59375 C 148.269531 -2.09375 144.125 -0.34375 138.75 -0.34375 C 131.738281 -0.34375 125.957031 -2.96875 121.40625 -8.21875 C 116.851562 -13.476562 113.988281 -19.378906 112.8125 -25.921875 C 108.375 -17.515625 101.953125 -10.390625 93.546875 -4.546875 C 85.140625 1.285156 76.03125 4.203125 66.21875 4.203125 C 55.707031 4.203125 46.65625 0.582031 39.0625 -6.65625 C 31.46875 -13.894531 25.160156 -22.648438 20.140625 -32.921875 C 15.117188 -43.203125 11.378906 -53.945312 8.921875 -65.15625 C 6.472656 -76.375 5.25 -86.070312 5.25 -94.25 C 5.25 -100.09375 5.597656 -106.75 6.296875 -114.21875 C 7.003906 -121.695312 8.234375 -129.289062 9.984375 -137 C 11.734375 -144.707031 14.007812 -152.238281 16.8125 -159.59375 C 19.613281 -166.945312 23.175781 -173.546875 27.5 -179.390625 C 31.820312 -185.234375 36.960938 -189.90625 42.921875 -193.40625 C 48.878906 -196.90625 55.710938 -198.65625 63.421875 -198.65625 C 71.828125 -198.65625 79.882812 -196.203125 87.59375 -191.296875 C 95.300781 -186.398438 101.140625 -180.328125 105.109375 -173.078125 L 108.265625 -228.796875 C 108.492188 -233.234375 108.84375 -238.425781 109.3125 -244.375 C 109.78125 -250.332031 110.773438 -256 112.296875 -261.375 C 113.816406 -266.75 116.207031 -271.300781 119.46875 -275.03125 C 122.738281 -278.769531 127.53125 -280.640625 133.84375 -280.640625 C 140.613281 -280.640625 145.867188 -279.003906 149.609375 -275.734375 C 153.347656 -272.472656 156.09375 -268.328125 157.84375 -263.296875 C 159.59375 -258.273438 160.640625 -252.84375 160.984375 -247 C 161.335938 -241.164062 161.515625 -235.679688 161.515625 -230.546875 Z M 104.40625 -74.984375 C 104.40625 -80.347656 104.285156 -85.597656 104.046875 -90.734375 C 103.816406 -95.878906 103.820312 -101.140625 104.0625 -106.515625 C 102.65625 -109.546875 101.019531 -112.867188 99.15625 -116.484375 C 97.289062 -120.109375 95.015625 -123.5 92.328125 -126.65625 C 89.640625 -129.8125 86.660156 -132.441406 83.390625 -134.546875 C 80.117188 -136.648438 76.613281 -137.703125 72.875 -137.703125 C 68.675781 -137.703125 65.289062 -136.414062 62.71875 -133.84375 C 60.144531 -131.269531 58.273438 -128.171875 57.109375 -124.546875 C 55.941406 -120.929688 55.179688 -117.019531 54.828125 -112.8125 C 54.484375 -108.613281 54.3125 -104.992188 54.3125 -101.953125 C 54.3125 -99.148438 54.539062 -95.003906 55 -89.515625 C 55.46875 -84.023438 56.34375 -78.476562 57.625 -72.875 C 58.914062 -67.269531 60.726562 -62.363281 63.0625 -58.15625 C 65.40625 -53.957031 68.5625 -51.859375 72.53125 -51.859375 C 75.5625 -51.859375 78.59375 -52.5 81.625 -53.78125 C 84.664062 -55.0625 87.53125 -56.695312 90.21875 -58.6875 C 92.90625 -60.675781 95.472656 -62.894531 97.921875 -65.34375 C 100.378906 -67.789062 102.539062 -70.066406 104.40625 -72.171875 Z M 104.40625 -74.984375 "/></g></g><g transform="translate(972.21952, 447.655929)"><g><path d="M 68.328125 -244.5625 C 68.328125 -241.289062 67.445312 -238.367188 65.6875 -235.796875 C 63.9375 -233.234375 61.660156 -230.957031 58.859375 -228.96875 C 56.054688 -226.976562 53.019531 -225.457031 49.75 -224.40625 C 46.476562 -223.363281 43.441406 -222.84375 40.640625 -222.84375 C 35.972656 -222.84375 31.882812 -224.007812 28.375 -226.34375 C 24.875 -228.675781 23.125 -232.296875 23.125 -237.203125 C 23.125 -240.703125 24 -243.796875 25.75 -246.484375 C 27.5 -249.171875 29.660156 -251.390625 32.234375 -253.140625 C 34.804688 -254.890625 37.726562 -256.234375 41 -257.171875 C 44.269531 -258.109375 47.421875 -258.578125 50.453125 -258.578125 C 54.890625 -258.578125 58.976562 -257.523438 62.71875 -255.421875 C 66.457031 -253.316406 68.328125 -249.695312 68.328125 -244.5625 Z M 71.125 -125.4375 C 71.125 -122.164062 71.125 -118.71875 71.125 -115.09375 C 71.125 -111.476562 71.007812 -108.035156 70.78125 -104.765625 C 70.539062 -100.796875 70.421875 -95.476562 70.421875 -88.8125 C 70.421875 -82.15625 70.1875 -74.972656 69.71875 -67.265625 C 69.25 -59.554688 68.488281 -51.734375 67.4375 -43.796875 C 66.394531 -35.859375 64.703125 -28.617188 62.359375 -22.078125 C 60.023438 -15.535156 56.929688 -10.21875 53.078125 -6.125 C 49.222656 -2.039062 44.378906 0.113281 38.546875 0.34375 C 34.109375 0.582031 30.367188 -1.164062 27.328125 -4.90625 C 24.296875 -8.644531 21.785156 -13.488281 19.796875 -19.4375 C 17.804688 -25.394531 16.34375 -32.050781 15.40625 -39.40625 C 14.476562 -46.769531 13.78125 -53.894531 13.3125 -60.78125 C 12.84375 -67.675781 12.609375 -74.039062 12.609375 -79.875 C 12.609375 -85.71875 12.609375 -90.039062 12.609375 -92.84375 C 12.609375 -96.582031 12.609375 -101.894531 12.609375 -108.78125 C 12.609375 -115.675781 12.84375 -123.09375 13.3125 -131.03125 C 13.78125 -138.976562 14.65625 -147.039062 15.9375 -155.21875 C 17.226562 -163.394531 19.097656 -170.867188 21.546875 -177.640625 C 24.003906 -184.410156 27.21875 -189.894531 31.1875 -194.09375 C 35.15625 -198.300781 40.175781 -200.40625 46.25 -200.40625 C 52.550781 -200.40625 57.335938 -197.253906 60.609375 -190.953125 C 63.878906 -184.648438 66.332031 -177.289062 67.96875 -168.875 C 69.601562 -160.46875 70.535156 -152.117188 70.765625 -143.828125 C 71.003906 -135.535156 71.125 -129.40625 71.125 -125.4375 Z M 71.125 -125.4375 "/></g></g><g transform="translate(1057.70887, 447.655929)"><g><path d="M 110.015625 9.8125 C 106.046875 9.8125 102.890625 8 100.546875 4.375 C 98.210938 0.757812 96.460938 -3.378906 95.296875 -8.046875 C 94.128906 -12.722656 93.367188 -17.457031 93.015625 -22.25 C 92.671875 -27.039062 92.5 -30.71875 92.5 -33.28125 C 92.5 -40.289062 92.90625 -47.296875 93.71875 -54.296875 C 94.539062 -61.304688 95.476562 -68.316406 96.53125 -75.328125 C 97.582031 -82.335938 98.515625 -89.34375 99.328125 -96.34375 C 100.148438 -103.351562 100.5625 -110.363281 100.5625 -117.375 C 100.5625 -120.175781 100.441406 -123.210938 100.203125 -126.484375 C 99.972656 -129.753906 99.445312 -132.847656 98.625 -135.765625 C 97.8125 -138.691406 96.46875 -141.085938 94.59375 -142.953125 C 92.726562 -144.816406 90.28125 -145.75 87.25 -145.75 C 85.144531 -145.75 82.804688 -144.054688 80.234375 -140.671875 C 77.660156 -137.285156 75.265625 -133.429688 73.046875 -129.109375 C 70.828125 -124.785156 68.957031 -120.460938 67.4375 -116.140625 C 65.925781 -111.828125 65.171875 -108.617188 65.171875 -106.515625 C 65.171875 -101.378906 65.226562 -96.179688 65.34375 -90.921875 C 65.457031 -85.660156 65.515625 -80.347656 65.515625 -74.984375 L 65.515625 -54.65625 C 65.285156 -50.445312 64.9375 -46.125 64.46875 -41.6875 C 64 -37.25 63.296875 -32.929688 62.359375 -28.734375 C 61.660156 -24.523438 60.609375 -20.492188 59.203125 -16.640625 C 57.804688 -12.785156 56 -9.398438 53.78125 -6.484375 C 51.5625 -3.566406 48.929688 -1.175781 45.890625 0.6875 C 42.859375 2.5625 39.238281 3.5 35.03125 3.5 C 30.363281 3.5 26.507812 1.984375 23.46875 -1.046875 C 20.4375 -4.085938 17.984375 -8 16.109375 -12.78125 C 14.242188 -17.570312 12.898438 -22.945312 12.078125 -28.90625 C 11.265625 -34.863281 10.679688 -40.703125 10.328125 -46.421875 C 9.984375 -52.148438 9.867188 -57.40625 9.984375 -62.1875 C 10.097656 -66.976562 10.15625 -70.773438 10.15625 -73.578125 L 10.15625 -90.046875 C 10.15625 -98.921875 9.976562 -107.675781 9.625 -116.3125 C 9.28125 -124.957031 9.109375 -133.601562 9.109375 -142.25 C 9.109375 -146.925781 9.164062 -152.882812 9.28125 -160.125 C 9.394531 -167.363281 10.269531 -174.425781 11.90625 -181.3125 C 13.539062 -188.207031 16.226562 -194.109375 19.96875 -199.015625 C 23.707031 -203.921875 29.195312 -206.375 36.4375 -206.375 C 39.707031 -206.375 42.625 -205.320312 45.1875 -203.21875 C 47.757812 -201.113281 50.039062 -198.539062 52.03125 -195.5 C 54.019531 -192.46875 55.65625 -189.195312 56.9375 -185.6875 C 58.21875 -182.1875 59.207031 -179.15625 59.90625 -176.59375 C 62.25 -179.863281 64.992188 -183.015625 68.140625 -186.046875 C 71.296875 -189.085938 74.859375 -191.773438 78.828125 -194.109375 C 82.804688 -196.441406 87.242188 -198.304688 92.140625 -199.703125 C 97.046875 -201.109375 102.65625 -201.8125 108.96875 -201.8125 C 120.875 -201.8125 130.15625 -198.945312 136.8125 -193.21875 C 143.476562 -187.5 148.382812 -180.375 151.53125 -171.84375 C 154.6875 -163.320312 156.613281 -154.15625 157.3125 -144.34375 C 158.019531 -134.539062 158.375 -125.664062 158.375 -117.71875 C 158.375 -113.75 158.019531 -107.851562 157.3125 -100.03125 C 156.613281 -92.207031 155.503906 -83.5625 153.984375 -74.09375 C 152.472656 -64.632812 150.429688 -54.941406 147.859375 -45.015625 C 145.285156 -35.085938 142.242188 -26.035156 138.734375 -17.859375 C 135.234375 -9.691406 131.085938 -3.039062 126.296875 2.09375 C 121.515625 7.238281 116.085938 9.8125 110.015625 9.8125 Z M 110.015625 9.8125 "/></g></g><g transform="translate(1225.18391, 447.655929)"><g><path d="M 169.234375 -119.484375 C 169.234375 -107.566406 169.054688 -95.648438 168.703125 -83.734375 C 168.347656 -71.828125 167.707031 -59.914062 166.78125 -48 C 166.070312 -37.71875 165.132812 -26.738281 163.96875 -15.0625 C 162.800781 -3.382812 160.929688 8.234375 158.359375 19.796875 C 155.796875 31.359375 152.410156 42.453125 148.203125 53.078125 C 144.003906 63.703125 138.457031 73.101562 131.5625 81.28125 C 124.675781 89.457031 116.328125 96 106.515625 100.90625 C 96.703125 105.8125 85.019531 108.265625 71.46875 108.265625 C 65.164062 108.265625 58.101562 107.269531 50.28125 105.28125 C 42.457031 103.300781 35.097656 100.441406 28.203125 96.703125 C 21.316406 92.960938 15.476562 88.347656 10.6875 82.859375 C 5.894531 77.367188 3.5 71.003906 3.5 63.765625 C 3.5 58.390625 5.425781 53.425781 9.28125 48.875 C 13.132812 44.320312 18.097656 42.046875 24.171875 42.046875 C 27.910156 42.046875 31.472656 42.6875 34.859375 43.96875 C 38.242188 45.257812 41.628906 46.71875 45.015625 48.34375 C 48.410156 49.976562 51.679688 51.4375 54.828125 52.71875 C 57.984375 54.007812 61.195312 54.65625 64.46875 54.65625 C 73.113281 54.65625 80.351562 52.492188 86.1875 48.171875 C 92.03125 43.847656 96.703125 38.359375 100.203125 31.703125 C 103.710938 25.046875 106.34375 17.804688 108.09375 9.984375 C 109.84375 2.160156 111.066406 -5.253906 111.765625 -12.265625 C 107.097656 -6.890625 101.664062 -3.207031 95.46875 -1.21875 C 89.28125 0.757812 82.800781 1.75 76.03125 1.75 C 63.65625 1.75 53.144531 -0.410156 44.5 -4.734375 C 35.851562 -9.054688 28.84375 -15.007812 23.46875 -22.59375 C 18.101562 -30.1875 14.132812 -39.003906 11.5625 -49.046875 C 8.988281 -59.097656 7.703125 -69.960938 7.703125 -81.640625 C 7.703125 -88.878906 8.460938 -97.050781 9.984375 -106.15625 C 11.503906 -115.269531 13.78125 -124.5 16.8125 -133.84375 C 19.851562 -143.1875 23.648438 -152.296875 28.203125 -161.171875 C 32.753906 -170.046875 38.066406 -177.867188 44.140625 -184.640625 C 50.210938 -191.421875 57.046875 -196.910156 64.640625 -201.109375 C 72.234375 -205.316406 80.585938 -207.421875 89.703125 -207.421875 C 98.578125 -207.421875 106.457031 -204.847656 113.34375 -199.703125 C 120.238281 -194.566406 124.269531 -187.328125 125.4375 -177.984375 C 128 -182.890625 131.382812 -187.738281 135.59375 -192.53125 C 139.800781 -197.320312 144.941406 -199.71875 151.015625 -199.71875 C 154.285156 -199.71875 157.03125 -198.082031 159.25 -194.8125 C 161.46875 -191.539062 163.21875 -187.273438 164.5 -182.015625 C 165.78125 -176.765625 166.769531 -171.039062 167.46875 -164.84375 C 168.175781 -158.65625 168.644531 -152.582031 168.875 -146.625 C 169.113281 -140.675781 169.234375 -135.25 169.234375 -130.34375 C 169.234375 -125.4375 169.234375 -121.816406 169.234375 -119.484375 Z M 115.96875 -96.703125 C 115.96875 -100.203125 115.441406 -104.753906 114.390625 -110.359375 C 113.335938 -115.972656 111.816406 -121.347656 109.828125 -126.484375 C 107.847656 -131.617188 105.335938 -136.054688 102.296875 -139.796875 C 99.265625 -143.535156 95.648438 -145.40625 91.453125 -145.40625 C 86.078125 -145.40625 81.34375 -143.535156 77.25 -139.796875 C 73.164062 -136.054688 69.722656 -131.554688 66.921875 -126.296875 C 64.117188 -121.046875 61.957031 -115.441406 60.4375 -109.484375 C 58.914062 -103.535156 58.15625 -98.457031 58.15625 -94.25 C 58.15625 -91.21875 58.390625 -87.128906 58.859375 -81.984375 C 59.328125 -76.847656 60.320312 -71.828125 61.84375 -66.921875 C 63.363281 -62.015625 65.40625 -57.804688 67.96875 -54.296875 C 70.539062 -50.796875 73.929688 -49.046875 78.140625 -49.046875 C 84.441406 -49.046875 89.925781 -50.5625 94.59375 -53.59375 C 99.269531 -56.632812 103.179688 -60.488281 106.328125 -65.15625 C 109.484375 -69.832031 111.878906 -74.972656 113.515625 -80.578125 C 115.148438 -86.191406 115.96875 -91.566406 115.96875 -96.703125 Z M 115.96875 -96.703125 "/></g></g></g><g fill="#000000" fill-opacity="1"><g transform="translate(249.046896, 670.558321)"><g><path d="M 33.40625 -65.78125 L 33.40625 -18.578125 C 33.40625 -12.148438 31.632812 -7.242188 28.09375 -3.859375 C 24.5625 -0.484375 19.503906 1.203125 12.921875 1.203125 C 11.160156 1.203125 9.429688 0.988281 7.734375 0.5625 C 6.035156 0.132812 4.597656 -0.378906 3.421875 -0.984375 C 2.253906 -1.597656 1.207031 -2.222656 0.28125 -2.859375 C -0.644531 -3.503906 -1.320312 -4.039062 -1.75 -4.46875 L -2.46875 -5.109375 L 2.3125 -17.625 C 5.445312 -14.644531 8.289062 -13.15625 10.84375 -13.15625 C 13.125 -13.15625 14.957031 -13.910156 16.34375 -15.421875 C 17.726562 -16.941406 18.421875 -19.269531 18.421875 -22.40625 L 18.421875 -65.78125 Z M 33.40625 -65.78125 "/></g></g></g><g fill="#000000" fill-opacity="1"><g transform="translate(300.949652, 670.558321)"><g><path d="M 42.421875 -65.78125 L 42.421875 -52.625 L 19.78125 -52.625 L 19.78125 -39.546875 L 41.46875 -39.546875 L 41.46875 -26.390625 L 19.78125 -26.390625 L 19.78125 -13.15625 L 42.421875 -13.15625 L 42.421875 0 L 4.78125 0 L 4.78125 -65.78125 Z M 42.421875 -65.78125 "/></g></g></g><g fill="#000000" fill-opacity="1"><g transform="translate(361.702156, 670.558321)"><g><path d="M 55.25 0 L 44.734375 -36.921875 L 34.203125 0 L 17.546875 0 L -1.203125 -65.78125 L 15.46875 -65.78125 L 26.71875 -20.65625 L 27.109375 -20.65625 L 39.0625 -65.78125 L 50.390625 -65.78125 L 62.359375 -20.65625 L 62.75 -20.65625 L 74 -65.78125 L 90.578125 -65.78125 L 71.84375 0 Z M 55.25 0 "/></g></g></g><g fill="#000000" fill-opacity="1"><g transform="translate(465.587372, 670.558321)"><g><path d="M 42.421875 -65.78125 L 42.421875 -52.625 L 19.78125 -52.625 L 19.78125 -39.546875 L 41.46875 -39.546875 L 41.46875 -26.390625 L 19.78125 -26.390625 L 19.78125 -13.15625 L 42.421875 -13.15625 L 42.421875 0 L 4.78125 0 L 4.78125 -65.78125 Z M 42.421875 -65.78125 "/></g></g></g><g fill="#000000" fill-opacity="1"><g transform="translate(526.339876, 670.558321)"><g><path d="M 4.78125 -65.78125 L 28.78125 -65.78125 C 35.476562 -65.78125 40.898438 -64.050781 45.046875 -60.59375 C 49.191406 -57.144531 51.265625 -52.125 51.265625 -45.53125 C 51.265625 -38.9375 49.164062 -33.765625 44.96875 -30.015625 C 40.769531 -26.273438 35.375 -24.40625 28.78125 -24.40625 L 19.78125 -24.40625 L 19.78125 0 L 4.78125 0 Z M 19.78125 -36.359375 L 24 -36.359375 C 27.34375 -36.359375 30.09375 -37.035156 32.25 -38.390625 C 34.40625 -39.742188 35.484375 -41.960938 35.484375 -45.046875 C 35.484375 -48.179688 34.40625 -50.425781 32.25 -51.78125 C 30.09375 -53.144531 27.34375 -53.828125 24 -53.828125 L 19.78125 -53.828125 Z M 19.78125 -36.359375 "/></g></g></g><g fill="#000000" fill-opacity="1"><g transform="translate(593.948993, 670.558321)"><g><path d="M 42.421875 -65.78125 L 42.421875 -52.625 L 19.78125 -52.625 L 19.78125 -39.546875 L 41.46875 -39.546875 L 41.46875 -26.390625 L 19.78125 -26.390625 L 19.78125 -13.15625 L 42.421875 -13.15625 L 42.421875 0 L 4.78125 0 L 4.78125 -65.78125 Z M 42.421875 -65.78125 "/></g></g></g><g fill="#000000" fill-opacity="1"><g transform="translate(654.701516, 670.558321)"><g/></g></g><g fill="#000000" fill-opacity="1"><g transform="translate(690.977636, 670.558321)"><g><path d="M 29.015625 -66.984375 C 32.578125 -66.984375 36.0625 -66.460938 39.46875 -65.421875 C 42.875 -64.390625 45.398438 -63.367188 47.046875 -62.359375 L 49.4375 -60.75 L 43.375 -48.796875 C 42.894531 -49.117188 42.226562 -49.53125 41.375 -50.03125 C 40.53125 -50.539062 38.9375 -51.21875 36.59375 -52.0625 C 34.257812 -52.914062 32.082031 -53.34375 30.0625 -53.34375 C 27.5625 -53.34375 25.632812 -52.8125 24.28125 -51.75 C 22.925781 -50.6875 22.25 -49.25 22.25 -47.4375 C 22.25 -46.539062 22.566406 -45.707031 23.203125 -44.9375 C 23.835938 -44.164062 24.925781 -43.335938 26.46875 -42.453125 C 28.007812 -41.578125 29.363281 -40.875 30.53125 -40.34375 C 31.707031 -39.8125 33.515625 -39.015625 35.953125 -37.953125 C 40.210938 -36.148438 43.84375 -33.691406 46.84375 -30.578125 C 49.84375 -27.460938 51.34375 -23.941406 51.34375 -20.015625 C 51.34375 -16.242188 50.664062 -12.945312 49.3125 -10.125 C 47.957031 -7.3125 46.097656 -5.101562 43.734375 -3.5 C 41.367188 -1.90625 38.75 -0.722656 35.875 0.046875 C 33.007812 0.816406 29.898438 1.203125 26.546875 1.203125 C 23.679688 1.203125 20.863281 0.90625 18.09375 0.3125 C 15.332031 -0.269531 13.019531 -1 11.15625 -1.875 C 9.300781 -2.75 7.628906 -3.609375 6.140625 -4.453125 C 4.648438 -5.304688 3.5625 -6.03125 2.875 -6.625 L 1.828125 -7.5 L 9.328125 -20.09375 C 9.960938 -19.5625 10.835938 -18.882812 11.953125 -18.0625 C 13.078125 -17.238281 15.0625 -16.132812 17.90625 -14.75 C 20.75 -13.363281 23.257812 -12.671875 25.4375 -12.671875 C 31.757812 -12.671875 34.921875 -14.828125 34.921875 -19.140625 C 34.921875 -20.035156 34.691406 -20.867188 34.234375 -21.640625 C 33.785156 -22.410156 32.988281 -23.179688 31.84375 -23.953125 C 30.707031 -24.722656 29.703125 -25.332031 28.828125 -25.78125 C 27.953125 -26.238281 26.515625 -26.929688 24.515625 -27.859375 C 22.523438 -28.796875 21.050781 -29.503906 20.09375 -29.984375 C 16.101562 -31.953125 13.019531 -34.410156 10.84375 -37.359375 C 8.664062 -40.304688 7.578125 -43.484375 7.578125 -46.890625 C 7.578125 -52.785156 9.753906 -57.609375 14.109375 -61.359375 C 18.472656 -65.109375 23.441406 -66.984375 29.015625 -66.984375 Z M 29.015625 -66.984375 "/></g></g></g><g fill="#000000" fill-opacity="1"><g transform="translate(759.06514, 670.558321)"><g><path d="M 39.78125 -13.5625 C 42.070312 -13.5625 44.289062 -13.90625 46.4375 -14.59375 C 48.59375 -15.28125 50.175781 -15.941406 51.1875 -16.578125 L 52.703125 -17.625 L 59.078125 -4.859375 C 58.867188 -4.703125 58.578125 -4.488281 58.203125 -4.21875 C 57.828125 -3.957031 56.960938 -3.46875 55.609375 -2.75 C 54.253906 -2.03125 52.804688 -1.40625 51.265625 -0.875 C 49.722656 -0.34375 47.703125 0.132812 45.203125 0.5625 C 42.710938 0.988281 40.132812 1.203125 37.46875 1.203125 C 31.363281 1.203125 25.570312 -0.296875 20.09375 -3.296875 C 14.613281 -6.304688 10.195312 -10.441406 6.84375 -15.703125 C 3.5 -20.960938 1.828125 -26.648438 1.828125 -32.765625 C 1.828125 -37.390625 2.8125 -41.828125 4.78125 -46.078125 C 6.75 -50.335938 9.367188 -53.984375 12.640625 -57.015625 C 15.910156 -60.046875 19.722656 -62.460938 24.078125 -64.265625 C 28.441406 -66.078125 32.90625 -66.984375 37.46875 -66.984375 C 41.726562 -66.984375 45.648438 -66.476562 49.234375 -65.46875 C 52.828125 -64.457031 55.363281 -63.445312 56.84375 -62.4375 L 59.078125 -60.921875 L 52.703125 -48.15625 C 52.328125 -48.476562 51.765625 -48.863281 51.015625 -49.3125 C 50.273438 -49.769531 48.789062 -50.367188 46.5625 -51.109375 C 44.332031 -51.847656 42.070312 -52.21875 39.78125 -52.21875 C 36.164062 -52.21875 32.921875 -51.632812 30.046875 -50.46875 C 27.179688 -49.300781 24.910156 -47.757812 23.234375 -45.84375 C 21.566406 -43.9375 20.289062 -41.878906 19.40625 -39.671875 C 18.53125 -37.460938 18.09375 -35.21875 18.09375 -32.9375 C 18.09375 -27.9375 19.96875 -23.457031 23.71875 -19.5 C 27.46875 -15.539062 32.820312 -13.5625 39.78125 -13.5625 Z M 39.78125 -13.5625 "/></g></g></g><g fill="#000000" fill-opacity="1"><g transform="translate(833.610576, 670.558321)"><g><path d="M 19.78125 -26.390625 L 19.78125 0 L 4.78125 0 L 4.78125 -65.78125 L 19.78125 -65.78125 L 19.78125 -39.546875 L 40.984375 -39.546875 L 40.984375 -65.78125 L 55.96875 -65.78125 L 55.96875 0 L 40.984375 0 L 40.984375 -26.390625 Z M 19.78125 -26.390625 "/></g></g></g><g fill="#000000" fill-opacity="1"><g transform="translate(908.873532, 670.558321)"><g><path d="M 1.828125 -32.9375 C 1.828125 -42.445312 5.070312 -50.5 11.5625 -57.09375 C 18.050781 -63.6875 25.863281 -66.984375 35 -66.984375 C 44.195312 -66.984375 52.007812 -63.695312 58.4375 -57.125 C 64.875 -50.5625 68.09375 -42.5 68.09375 -32.9375 C 68.09375 -23.3125 64.925781 -15.210938 58.59375 -8.640625 C 52.269531 -2.078125 44.40625 1.203125 35 1.203125 C 25.382812 1.203125 17.453125 -2.050781 11.203125 -8.5625 C 4.953125 -15.082031 1.828125 -23.207031 1.828125 -32.9375 Z M 18.015625 -32.9375 C 18.015625 -29.476562 18.546875 -26.328125 19.609375 -23.484375 C 20.671875 -20.640625 22.53125 -18.234375 25.1875 -16.265625 C 27.851562 -14.296875 31.125 -13.3125 35 -13.3125 C 40.582031 -13.3125 44.796875 -15.222656 47.640625 -19.046875 C 50.484375 -22.878906 51.90625 -27.507812 51.90625 -32.9375 C 51.90625 -38.300781 50.457031 -42.910156 47.5625 -46.765625 C 44.664062 -50.617188 40.476562 -52.546875 35 -52.546875 C 29.582031 -52.546875 25.394531 -50.617188 22.4375 -46.765625 C 19.488281 -42.910156 18.015625 -38.300781 18.015625 -32.9375 Z M 18.015625 -32.9375 "/></g></g></g><g fill="#000000" fill-opacity="1"><g transform="translate(993.305214, 670.558321)"><g><path d="M 1.828125 -32.9375 C 1.828125 -42.445312 5.070312 -50.5 11.5625 -57.09375 C 18.050781 -63.6875 25.863281 -66.984375 35 -66.984375 C 44.195312 -66.984375 52.007812 -63.695312 58.4375 -57.125 C 64.875 -50.5625 68.09375 -42.5 68.09375 -32.9375 C 68.09375 -23.3125 64.925781 -15.210938 58.59375 -8.640625 C 52.269531 -2.078125 44.40625 1.203125 35 1.203125 C 25.382812 1.203125 17.453125 -2.050781 11.203125 -8.5625 C 4.953125 -15.082031 1.828125 -23.207031 1.828125 -32.9375 Z M 18.015625 -32.9375 C 18.015625 -29.476562 18.546875 -26.328125 19.609375 -23.484375 C 20.671875 -20.640625 22.53125 -18.234375 25.1875 -16.265625 C 27.851562 -14.296875 31.125 -13.3125 35 -13.3125 C 40.582031 -13.3125 44.796875 -15.222656 47.640625 -19.046875 C 50.484375 -22.878906 51.90625 -27.507812 51.90625 -32.9375 C 51.90625 -38.300781 50.457031 -42.910156 47.5625 -46.765625 C 44.664062 -50.617188 40.476562 -52.546875 35 -52.546875 C 29.582031 -52.546875 25.394531 -50.617188 22.4375 -46.765625 C 19.488281 -42.910156 18.015625 -38.300781 18.015625 -32.9375 Z M 18.015625 -32.9375 "/></g></g></g><g fill="#000000" fill-opacity="1"><g transform="translate(1077.736896, 670.558321)"><g><path d="M 19.78125 -65.78125 L 19.78125 -13.15625 L 42.421875 -13.15625 L 42.421875 0 L 4.78125 0 L 4.78125 -65.78125 Z M 19.78125 -65.78125 "/></g></g></g><g fill="#000000" fill-opacity="1"><g transform="translate(1137.29347, 670.558321)"><g><path d="M 29.015625 -66.984375 C 32.578125 -66.984375 36.0625 -66.460938 39.46875 -65.421875 C 42.875 -64.390625 45.398438 -63.367188 47.046875 -62.359375 L 49.4375 -60.75 L 43.375 -48.796875 C 42.894531 -49.117188 42.226562 -49.53125 41.375 -50.03125 C 40.53125 -50.539062 38.9375 -51.21875 36.59375 -52.0625 C 34.257812 -52.914062 32.082031 -53.34375 30.0625 -53.34375 C 27.5625 -53.34375 25.632812 -52.8125 24.28125 -51.75 C 22.925781 -50.6875 22.25 -49.25 22.25 -47.4375 C 22.25 -46.539062 22.566406 -45.707031 23.203125 -44.9375 C 23.835938 -44.164062 24.925781 -43.335938 26.46875 -42.453125 C 28.007812 -41.578125 29.363281 -40.875 30.53125 -40.34375 C 31.707031 -39.8125 33.515625 -39.015625 35.953125 -37.953125 C 40.210938 -36.148438 43.84375 -33.691406 46.84375 -30.578125 C 49.84375 -27.460938 51.34375 -23.941406 51.34375 -20.015625 C 51.34375 -16.242188 50.664062 -12.945312 49.3125 -10.125 C 47.957031 -7.3125 46.097656 -5.101562 43.734375 -3.5 C 41.367188 -1.90625 38.75 -0.722656 35.875 0.046875 C 33.007812 0.816406 29.898438 1.203125 26.546875 1.203125 C 23.679688 1.203125 20.863281 0.90625 18.09375 0.3125 C 15.332031 -0.269531 13.019531 -1 11.15625 -1.875 C 9.300781 -2.75 7.628906 -3.609375 6.140625 -4.453125 C 4.648438 -5.304688 3.5625 -6.03125 2.875 -6.625 L 1.828125 -7.5 L 9.328125 -20.09375 C 9.960938 -19.5625 10.835938 -18.882812 11.953125 -18.0625 C 13.078125 -17.238281 15.0625 -16.132812 17.90625 -14.75 C 20.75 -13.363281 23.257812 -12.671875 25.4375 -12.671875 C 31.757812 -12.671875 34.921875 -14.828125 34.921875 -19.140625 C 34.921875 -20.035156 34.691406 -20.867188 34.234375 -21.640625 C 33.785156 -22.410156 32.988281 -23.179688 31.84375 -23.953125 C 30.707031 -24.722656 29.703125 -25.332031 28.828125 -25.78125 C 27.953125 -26.238281 26.515625 -26.929688 24.515625 -27.859375 C 22.523438 -28.796875 21.050781 -29.503906 20.09375 -29.984375 C 16.101562 -31.953125 13.019531 -34.410156 10.84375 -37.359375 C 8.664062 -40.304688 7.578125 -43.484375 7.578125 -46.890625 C 7.578125 -52.785156 9.753906 -57.609375 14.109375 -61.359375 C 18.472656 -65.109375 23.441406 -66.984375 29.015625 -66.984375 Z M 29.015625 -66.984375 "/></g></g></g></svg>